<?xml version="1.0" standalone="no"?>
<!DOCTYPE svg PUBLIC "-//W3C//DTD SVG 20010904//EN"
 "http://www.w3.org/TR/2001/REC-SVG-20010904/DTD/svg10.dtd">
<svg version="1.0" xmlns="http://www.w3.org/2000/svg"
 width="512.000000pt" height="512.000000pt" viewBox="0 0 512.000000 512.000000"
 preserveAspectRatio="xMidYMid meet">
<metadata>
Created by potrace 1.11, written by Peter Selinger 2001-2013
</metadata>
<g transform="translate(0.000000,512.000000) scale(0.100000,-0.100000)"
fill="#000000" stroke="none">
<path d="M0 2560 l0 -2560 2560 0 2560 0 0 2560 0 2560 -2560 0 -2560 0 0
-2560z m1420 375 l0 -45 -210 0 -210 0 0 -135 0 -135 193 -2 192 -3 3 -42 3
-43 -195 0 -196 0 0 -196 0 -195 -47 3 -48 3 -3 405 c-1 223 0 411 3 417 3 10
65 13 260 13 l255 0 0 -45z m446 -220 c54 -16 106 -62 123 -108 7 -17 11 -117
11 -248 l0 -219 -30 0 c-20 0 -33 7 -41 23 -6 12 -13 23 -14 25 -1 1 -24 -10
-51 -25 -42 -24 -60 -28 -129 -28 -127 0 -185 46 -193 152 -3 49 0 64 20 93
29 43 110 78 200 86 35 3 83 7 107 10 l43 6 -5 45 c-3 33 -13 54 -36 77 -28
28 -38 31 -105 34 -49 3 -93 -1 -131 -13 -31 -9 -58 -15 -60 -13 -1 2 -7 17
-13 34 -10 31 -9 32 31 48 100 37 193 45 273 21z m1087 4 c90 -25 148 -111
155 -231 l5 -78 -207 0 -206 0 6 -27 c19 -80 64 -137 126 -160 46 -16 126 -16
183 2 27 8 51 13 52 11 2 -2 8 -17 12 -34 8 -27 6 -31 -17 -41 -45 -18 -114
-30 -168 -31 -137 0 -245 78 -279 202 -44 164 28 333 163 383 45 17 124 19
175 4z m669 -7 c25 -10 26 -14 18 -43 -5 -17 -11 -34 -14 -36 -2 -3 -37 1 -78
8 -92 15 -162 6 -194 -26 -51 -51 -18 -102 85 -131 129 -36 157 -48 194 -84
33 -34 37 -43 37 -89 0 -89 -49 -148 -143 -172 -59 -14 -171 -7 -246 17 l-53
18 7 35 c4 20 8 37 10 39 2 2 26 -3 54 -12 154 -46 281 -20 281 55 0 41 -48
76 -132 99 -149 40 -190 65 -208 129 -24 88 37 174 145 202 40 11 203 4 237
-9z m521 7 c90 -25 148 -111 155 -231 l5 -78 -207 0 -206 0 6 -27 c19 -80 64
-137 126 -160 46 -16 126 -16 183 2 27 8 51 13 52 11 2 -2 8 -17 12 -34 8 -27
6 -31 -17 -41 -45 -18 -114 -30 -168 -31 -137 0 -245 78 -279 202 -44 164 28
333 163 383 45 17 124 19 175 4z m-1869 -39 l6 -41 38 29 c45 36 91 52 146 52
61 0 70 -9 57 -57 l-11 -41 -44 5 c-52 6 -106 -10 -146 -44 l-30 -25 0 -209 0
-209 -50 0 -50 0 0 290 0 290 39 0 c37 0 39 -1 45 -40z"/>
<path d="M1760 2400 c-100 -18 -140 -54 -124 -112 20 -70 139 -94 226 -46 l43
23 3 73 3 72 -53 -1 c-29 -1 -73 -5 -98 -9z"/>
<path d="M2800 2639 c-49 -20 -81 -62 -95 -126 l-7 -33 161 0 161 0 0 23 c0
42 -43 111 -80 129 -38 20 -101 22 -140 7z"/>
<path d="M3990 2639 c-49 -20 -81 -62 -95 -126 l-7 -33 161 0 161 0 0 23 c0
42 -43 111 -80 129 -38 20 -101 22 -140 7z"/>
</g>
</svg>
